<?xml version="1.0" encoding="utf-8"?>
<!-- Generator: Adobe Illustrator 24.0.1, SVG Export Plug-In . SVG Version: 6.00 Build 0)  -->
<!DOCTYPE svg PUBLIC "-//W3C//DTD SVG 1.1//EN" "http://www.w3.org/Graphics/SVG/1.1/DTD/svg11.dtd" [
	<!ENTITY ns_extend "http://ns.adobe.com/Extensibility/1.0/">
	<!ENTITY ns_ai "http://ns.adobe.com/AdobeIllustrator/10.0/">
	<!ENTITY ns_graphs "http://ns.adobe.com/Graphs/1.0/">
	<!ENTITY ns_vars "http://ns.adobe.com/Variables/1.0/">
	<!ENTITY ns_imrep "http://ns.adobe.com/ImageReplacement/1.0/">
	<!ENTITY ns_sfw "http://ns.adobe.com/SaveForWeb/1.0/">
	<!ENTITY ns_custom "http://ns.adobe.com/GenericCustomNamespace/1.0/">
	<!ENTITY ns_adobe_xpath "http://ns.adobe.com/XPath/1.0/">
]>
<svg version="1.1" id="Capa_1" xmlns:x="&ns_extend;" xmlns:i="&ns_ai;" xmlns:graph="&ns_graphs;"
	 xmlns="http://www.w3.org/2000/svg" xmlns:xlink="http://www.w3.org/1999/xlink" x="0px" y="0px" viewBox="0 0 120 120"
	 style="enable-background:new 0 0 120 120;" xml:space="preserve">
<style type="text/css">
	.st0{fill:#FFFFFF;}
	.st1{fill-rule:evenodd;clip-rule:evenodd;fill:#FFFFFF;}
</style>
<metadata>
	<sfw  xmlns="&ns_sfw;">
		<slices></slices>
		<sliceSourceBounds  bottomLeftOrigin="true" height="107.9" width="251" x="3" y="-114"></sliceSourceBounds>
	</sfw>
</metadata>
<g>
	<path class="st0" d="M38.5,17.8c-0.4-0.8-1.1-0.8-1.8-0.4c-0.7,0.4-0.6,0.7-0.4,1.2l0.9,1.7C38.1,19.8,39.1,18.8,38.5,17.8z
		 M38.5,17.8c-0.4-0.8-1.1-0.8-1.8-0.4c-0.7,0.4-0.6,0.7-0.4,1.2l0.9,1.7C38.1,19.8,39.1,18.8,38.5,17.8z M38.5,17.8
		c-0.4-0.8-1.1-0.8-1.8-0.4c-0.7,0.4-0.6,0.7-0.4,1.2l0.9,1.7C38.1,19.8,39.1,18.8,38.5,17.8z M38.5,17.8c-0.4-0.8-1.1-0.8-1.8-0.4
		c-0.7,0.4-0.6,0.7-0.4,1.2l0.9,1.7C38.1,19.8,39.1,18.8,38.5,17.8z M38.5,17.8c-0.4-0.8-1.1-0.8-1.8-0.4c-0.7,0.4-0.6,0.7-0.4,1.2
		l0.9,1.7C38.1,19.8,39.1,18.8,38.5,17.8z M38.5,17.8c-0.4-0.8-1.1-0.8-1.8-0.4c-0.7,0.4-0.6,0.7-0.4,1.2l0.9,1.7
		C38.1,19.8,39.1,18.8,38.5,17.8z M60,6C32.5,6,9.8,26.5,6.4,53.1h15C24.7,34.8,40.7,20.8,60,20.8c19.3,0,35.3,14,38.6,32.3h15
		C110.2,26.5,87.5,6,60,6z M23.7,39c-1,1.8-3.2,2.7-5.1,1.6c-1.9-1.1-2.4-3.6-1.4-5.4c0.4-0.7,1-1.3,1.7-1.7
		c0.1-0.1,0.3-0.2,0.4-0.1c0.2,0,0.8,0.3,1,0.5c0.2,0.1,0.2,0.3,0.1,0.5c-0.1,0.2-0.4,0.2-0.7,0.2c-0.6-0.1-1.4,0.1-1.9,0.9
		c-0.7,1.2,0,2.6,1.5,3.4c0.7,0.4,2.7,1.2,3.7-0.6c0.7-1.2-0.1-2.1,0.1-2.6c0.1-0.2,0.3-0.2,0.5-0.1C24.2,35.9,24.5,37.5,23.7,39z
		 M32.2,28.4l-3.4,3.4c-0.2,0.1-0.4,0.3-0.6,0.1c-0.1-0.1-0.1-0.2,0-0.4c0.1-0.3,0-0.4-0.2-0.6l-3.3-3.4c-0.3-0.3-0.4-0.4-0.6-0.3
		c-0.2,0.1-0.3,0.1-0.4,0c-0.2-0.2,0-0.4,0.1-0.6l3.3-3.2c0.2-0.2,0.3-0.3,0.5-0.3c0.2,0,0.6,0.4,0.8,0.6c0.2,0.2,0.2,0.4,0,0.6
		c-0.2,0.1-0.3,0.1-0.5,0.1c-0.6,0-0.7,0.1-1.5,0.8c-0.7,0.7-0.6,0.9-0.5,1l1.3,1.3l1.1-1c0.5-0.5,0.2-0.7,0.4-0.9
		c0.2-0.2,0.5,0.1,0.7,0.2c0.2,0.2,0.6,0.6,0.3,0.8c-0.2,0.2-0.4-0.1-0.9,0.4l-1.1,1l1.2,1.2c0.7,0.7,0.8,0.7,1.8-0.2
		c0.4-0.4,0.7-0.7,0.7-1.3c0-0.2-0.1-0.6,0.1-0.8c0.1-0.1,0.3-0.1,0.5,0c0.2,0.2,0.4,0.6,0.5,0.8C32.5,28,32.5,28.1,32.2,28.4z
		 M42.8,21.5l-1.7,0.9c-0.2,0.1-0.5,0.3-0.7,0c-0.1-0.3,0.2-0.4,0.1-0.7c-0.2-0.4-1.6-1.2-2.2-1.4c-0.2,0.2-0.4,0.4-0.8,0.6l0.8,1.5
		c0.1,0.3,0.2,0.4,0.5,0.4c0.2,0,0.4,0,0.4,0.2c0.1,0.2-0.1,0.4-0.3,0.5l-1.6,0.9c-0.2,0.1-0.5,0.2-0.6-0.1c-0.1-0.2,0-0.3,0.1-0.4
		c0.2-0.2,0.1-0.4,0-0.7l-2.2-4.1c-0.2-0.3-0.2-0.5-0.5-0.4c-0.2,0-0.3,0-0.4-0.2c-0.1-0.2,0.1-0.4,0.3-0.5l3.1-1.7
		c0.5-0.2,1-0.5,1.6-0.5c0.6,0,1.2,0.3,1.5,0.8c0.4,0.8,0.1,1.7-0.4,2.4c0.9,0.3,1.6,0.9,2.3,1.5c0.3,0.2,0.4,0.3,0.7,0.3
		c0.1,0,0.3,0,0.3,0.1C43.2,21.2,43,21.4,42.8,21.5z M52.7,12.8c-0.4,0.1-0.7-0.7-1.8-0.4c-0.4,0.1-0.4,0.2-0.3,0.6l1,4.6
		c0.1,0.3,0.1,0.5,0.3,0.5c0.2,0.1,0.3,0.1,0.4,0.3c0.1,0.3-0.2,0.4-0.4,0.4l-1.8,0.4c-0.2,0-0.5,0-0.5-0.2c0-0.2,0.1-0.3,0.2-0.4
		c0.2-0.2,0.2-0.3,0.1-0.7l-1-4.6c-0.1-0.4-0.1-0.5-0.5-0.4c-1.1,0.2-1,1-1.4,1.1c-0.2,0-0.3-0.1-0.4-0.3c0-0.1,0-0.2,0-0.6
		c0-0.6,0.1-0.6,0.5-0.7l4.9-1.1c0.4-0.1,0.5-0.1,0.8,0.5c0.1,0.3,0.2,0.4,0.2,0.5C52.9,12.6,52.9,12.8,52.7,12.8z M62.2,11.4
		c-0.3,0.2-0.3,0.3-0.3,0.6l-0.1,4.7c0,0.3,0,0.5,0.2,0.6c0.2,0.1,0.3,0.2,0.3,0.3c0,0.3-0.3,0.3-0.5,0.3l-1.9,0
		c-0.2,0-0.5-0.1-0.5-0.3c0-0.2,0.1-0.2,0.3-0.3c0.3-0.1,0.3-0.3,0.3-0.6l0.1-4.7c0-0.4,0-0.5-0.2-0.6c-0.2-0.1-0.3-0.2-0.3-0.3
		c0-0.3,0.3-0.3,0.5-0.3l1.9,0c0.2,0,0.5,0.1,0.5,0.3C62.4,11.4,62.3,11.4,62.2,11.4z M74.7,14c0,0.2-0.1,0.5-0.4,0.5
		c-0.2,0-0.3-0.2-0.4-0.4c-0.4-0.7-0.8-0.8-1.5-1c-0.9-0.2-1-0.2-1.2,0.5l-0.4,1.6l1.4,0.4c0.7,0.2,0.7-0.2,1-0.1
		c0.3,0.1,0.3,0.4,0.2,0.7c-0.1,0.4-0.2,0.8-0.5,0.7c-0.3-0.1-0.2-0.4-0.8-0.6L70.7,16l-0.5,2c-0.1,0.3-0.1,0.4,0,0.6
		c0.1,0.1,0.3,0.3,0.2,0.4c-0.1,0.3-0.3,0.3-0.6,0.2l-1.8-0.5c-0.2-0.1-0.5-0.2-0.4-0.4c0-0.2,0.2-0.2,0.3-0.2
		c0.3,0,0.3-0.2,0.4-0.5l1.2-4.5c0.1-0.4,0.1-0.5-0.1-0.6c-0.2-0.1-0.2-0.2-0.2-0.4c0.1-0.3,0.3-0.3,0.5-0.2l4.1,1
		c0.3,0.1,0.5,0.1,0.6,0.2C74.8,13.2,74.7,13.7,74.7,14z M83.8,17.3c-0.1,0.2-0.2,0.2-0.3,0.1c-0.3,0-0.4,0.1-0.6,0.4L80.7,22
		c-0.1,0.3-0.2,0.4-0.1,0.6c0.1,0.2,0.2,0.3,0.1,0.5c-0.1,0.2-0.4,0.2-0.6,0.1l-1.7-0.9c-0.2-0.1-0.4-0.3-0.3-0.5
		c0.1-0.2,0.2-0.2,0.4-0.2c0.3,0,0.4-0.1,0.5-0.4l2.2-4.2c0.2-0.3,0.2-0.5,0.1-0.6c-0.2-0.2-0.2-0.3-0.1-0.4
		c0.1-0.2,0.4-0.2,0.6-0.1l1.7,0.9C83.7,16.9,83.9,17.1,83.8,17.3z M93,25.5c-0.2-0.1-0.1-0.3-0.1-0.5c0-0.6-0.1-0.7-0.9-1.4
		c-0.8-0.7-0.9-0.5-1.1-0.4l-1.2,1.4l1.1,1c0.5,0.5,0.7,0.1,0.9,0.3c0.3,0.2,0,0.6-0.2,0.7c-0.2,0.2-0.5,0.7-0.8,0.4
		c-0.2-0.2,0-0.4-0.5-0.9l-1.1-1l-1.1,1.3c-0.7,0.8-0.6,0.9,0.4,1.8c0.4,0.4,0.8,0.6,1.4,0.5c0.2,0,0.6-0.1,0.8,0.1
		c0.1,0.1,0.2,0.3,0.1,0.5c-0.2,0.2-0.5,0.4-0.8,0.5c-0.4,0.2-0.4,0.2-0.8-0.1l-3.6-3.1c-0.2-0.1-0.3-0.4-0.1-0.6
		c0.1-0.1,0.2-0.1,0.4-0.1c0.3,0.1,0.4,0,0.6-0.3l3.1-3.6c0.2-0.3,0.3-0.4,0.2-0.6c-0.1-0.2-0.1-0.3,0-0.4c0.2-0.2,0.4-0.1,0.6,0.1
		l3.5,3c0.2,0.2,0.3,0.3,0.3,0.4c0,0.2-0.3,0.7-0.5,0.8C93.4,25.6,93.2,25.6,93,25.5z M100.4,38.5c-0.8,0.5-1.8,0.8-2.8,0.6
		c-1-0.2-1.8-0.9-2.3-1.8l-1.7-2.7c-0.1-0.2-0.2-0.4,0-0.6c0.1-0.1,0.3,0,0.4,0c0.2,0.2,0.4,0.1,0.7-0.1l4-2.5
		c0.3-0.2,0.4-0.3,0.4-0.5c-0.1-0.2,0-0.3,0.1-0.4c0.2-0.1,0.4,0,0.5,0.2l1.5,2.4c0.6,0.9,1,1.7,0.9,2.8
		C102,37,101.4,37.9,100.4,38.5z M99.4,33.1L96,35.2c-0.6,0.4-0.8,0.5-0.4,1.2c0.9,1.4,2.4,1.3,3.7,0.5c1.3-0.8,2-2.3,1.1-3.7
		C100.1,32.6,99.9,32.8,99.4,33.1z M36.7,17.4c-0.7,0.4-0.6,0.7-0.4,1.2l0.9,1.7c0.8-0.5,1.8-1.4,1.3-2.4C38.1,17,37.4,17,36.7,17.4
		z M38.5,17.8c-0.4-0.8-1.1-0.8-1.8-0.4c-0.7,0.4-0.6,0.7-0.4,1.2l0.9,1.7C38.1,19.8,39.1,18.8,38.5,17.8z M38.5,17.8
		c-0.4-0.8-1.1-0.8-1.8-0.4c-0.7,0.4-0.6,0.7-0.4,1.2l0.9,1.7C38.1,19.8,39.1,18.8,38.5,17.8z M38.5,17.8c-0.4-0.8-1.1-0.8-1.8-0.4
		c-0.7,0.4-0.6,0.7-0.4,1.2l0.9,1.7C38.1,19.8,39.1,18.8,38.5,17.8z M38.5,17.8c-0.4-0.8-1.1-0.8-1.8-0.4c-0.7,0.4-0.6,0.7-0.4,1.2
		l0.9,1.7C38.1,19.8,39.1,18.8,38.5,17.8z M38.5,17.8c-0.4-0.8-1.1-0.8-1.8-0.4c-0.7,0.4-0.6,0.7-0.4,1.2l0.9,1.7
		C38.1,19.8,39.1,18.8,38.5,17.8z M38.5,17.8c-0.4-0.8-1.1-0.8-1.8-0.4c-0.7,0.4-0.6,0.7-0.4,1.2l0.9,1.7
		C38.1,19.8,39.1,18.8,38.5,17.8z"/>
	<path class="st0" d="M21,55.6H6.2c-0.1,0.7-0.1,1.5-0.1,2.2h14.8C20.9,57.1,21,56.3,21,55.6L21,55.6z"/>
	<path class="st0" d="M17,80.3l1,2c0.7-0.7,1.3-1.4,1.8-2.2C18.9,80.1,18.1,80.2,17,80.3z M17,80.3l1,2c0.7-0.7,1.3-1.4,1.8-2.2
		C18.9,80.1,18.1,80.2,17,80.3z M17,80.3l1,2c0.7-0.7,1.3-1.4,1.8-2.2C18.9,80.1,18.1,80.2,17,80.3z M25.9,93.1l1.6,1.5
		c0.4-0.9,0.8-1.8,1-2.6C27.6,92.3,26.8,92.7,25.9,93.1z M25.9,93.1l1.6,1.5c0.4-0.9,0.8-1.8,1-2.6C27.6,92.3,26.8,92.7,25.9,93.1z
		 M17,80.3l1,2c0.7-0.7,1.3-1.4,1.8-2.2C18.9,80.1,18.1,80.2,17,80.3z M17,80.3l1,2c0.7-0.7,1.3-1.4,1.8-2.2
		C18.9,80.1,18.1,80.2,17,80.3z M25.9,93.1l1.6,1.5c0.4-0.9,0.8-1.8,1-2.6C27.6,92.3,26.8,92.7,25.9,93.1z M25.9,93.1l1.6,1.5
		c0.4-0.9,0.8-1.8,1-2.6C27.6,92.3,26.8,92.7,25.9,93.1z M17,80.3l1,2c0.7-0.7,1.3-1.4,1.8-2.2C18.9,80.1,18.1,80.2,17,80.3z
		 M17,80.3l1,2c0.7-0.7,1.3-1.4,1.8-2.2C18.9,80.1,18.1,80.2,17,80.3z M25.9,93.1l1.6,1.5c0.4-0.9,0.8-1.8,1-2.6
		C27.6,92.3,26.8,92.7,25.9,93.1z M25.9,93.1l1.6,1.5c0.4-0.9,0.8-1.8,1-2.6C27.6,92.3,26.8,92.7,25.9,93.1z M17,80.3l1,2
		c0.7-0.7,1.3-1.4,1.8-2.2C18.9,80.1,18.1,80.2,17,80.3z M17,80.3l1,2c0.7-0.7,1.3-1.4,1.8-2.2C18.9,80.1,18.1,80.2,17,80.3z
		 M25.9,93.1l1.6,1.5c0.4-0.9,0.8-1.8,1-2.6C27.6,92.3,26.8,92.7,25.9,93.1z M25.9,93.1l1.6,1.5c0.4-0.9,0.8-1.8,1-2.6
		C27.6,92.3,26.8,92.7,25.9,93.1z M17,80.3l1,2c0.7-0.7,1.3-1.4,1.8-2.2C18.9,80.1,18.1,80.2,17,80.3z M17,80.3l1,2
		c0.7-0.7,1.3-1.4,1.8-2.2C18.9,80.1,18.1,80.2,17,80.3z M25.9,93.1l1.6,1.5c0.4-0.9,0.8-1.8,1-2.6C27.6,92.3,26.8,92.7,25.9,93.1z
		 M25.9,93.1l1.6,1.5c0.4-0.9,0.8-1.8,1-2.6C27.6,92.3,26.8,92.7,25.9,93.1z M17,80.3l1,2c0.7-0.7,1.3-1.4,1.8-2.2
		C18.9,80.1,18.1,80.2,17,80.3z M17,80.3l1,2c0.7-0.7,1.3-1.4,1.8-2.2C18.9,80.1,18.1,80.2,17,80.3z M25.9,93.1l1.6,1.5
		c0.4-0.9,0.8-1.8,1-2.6C27.6,92.3,26.8,92.7,25.9,93.1z M25.9,93.1l1.6,1.5c0.4-0.9,0.8-1.8,1-2.6C27.6,92.3,26.8,92.7,25.9,93.1z
		 M17,80.3l1,2c0.7-0.7,1.3-1.4,1.8-2.2C18.9,80.1,18.1,80.2,17,80.3z M99.2,60.3c-0.1,21.5-17.7,39-39.2,39
		c-21.5,0-39.1-17.5-39.2-39H6c0.1,28.8,22.9,52.4,51.4,53.7h5.2c28.5-1.3,51.3-24.9,51.4-53.7H99.2z M13.1,78.8
		c-0.3,0.1-0.4-0.2-0.5-0.4l-0.5-1.8c-0.1-0.2-0.1-0.5,0.2-0.6c0.2,0,0.3,0,0.4,0.1c0.2,0.2,0.3,0.2,0.7,0.1c1.4-0.4,2.7-0.9,4-1.4
		c-1.5-0.1-2.8-0.2-4.3-0.4c-0.5-0.1-0.6-0.1-0.7-0.5c-0.1-0.4-0.1-0.5,0.2-0.8c1.1-1,2.1-1.9,3.4-2.8c-1.4,0.3-2.9,0.7-4,1.1
		c-0.3,0.1-0.4,0.2-0.4,0.6c0,0.2-0.1,0.3-0.2,0.3c-0.3,0.1-0.4-0.2-0.5-0.6L10.4,71c-0.1-0.3-0.2-0.6,0.1-0.7c0.2,0,0.3,0,0.4,0.1
		c0.2,0.3,0.4,0.3,0.7,0.2c1.3-0.4,4.5-1.2,4.8-1.3c0.2,0,0.2-0.3,0.2-0.5c0-0.2,0-0.4,0.2-0.5c0.3-0.1,0.4,0.2,0.5,0.4l0.6,1.8
		c0.1,0.5-0.1,0.6-0.4,0.8c-1.2,0.8-2.1,1.6-3.1,2.4c1.3,0.2,2.6,0.3,4.1,0.4c0.4,0,0.5,0,0.6,0.5l0.5,1.6c0.1,0.2,0.1,0.5-0.2,0.6
		c-0.2,0-0.3,0-0.3-0.1c-0.3-0.4-0.4-0.4-0.7-0.3c-1,0.3-2.8,1-4.5,1.5c-0.3,0.1-0.4,0.1-0.5,0.4C13.3,78.6,13.3,78.7,13.1,78.8z
		 M17.1,86c0,0.1,0,0.2-0.2,0.3c-0.3,0.1-0.4-0.1-0.5-0.3l-0.8-1.5c-0.1-0.2-0.3-0.5,0-0.7c0.3-0.1,0.4,0.2,0.6,0.1
		c0.1-0.1,0.4-0.3,1.1-1.1l-1.3-2.5c-0.8,0.1-1.1,0.2-1.3,0.3c-0.4,0.2-0.1,0.6-0.4,0.8c-0.3,0.1-0.4-0.1-0.6-0.4l-0.4-0.7
		c-0.1-0.3-0.2-0.5,0-0.7c0.1-0.1,0.2,0,0.4,0c0.2,0.1,0.2,0.1,0.4,0.1c1.9-0.4,4.1-0.6,6.4-0.5c0.4,0,0.5,0.1,0.7,0.6
		c0.2,0.4,0.2,0.5,0,0.8c-1.3,1.8-2.7,3.4-4.2,4.9C17.1,85.6,17.1,85.8,17.1,86z M20.7,92.2c-0.1-0.2-0.2-0.3-0.2-0.5
		c0.3-0.8,1.3-3.8,2-6.2l-3.3,2.5c-0.3,0.2-0.3,0.4-0.2,0.7c0,0.2,0,0.3-0.1,0.4c-0.2,0.2-0.4-0.1-0.6-0.4L17.7,88
		c-0.2-0.3-0.4-0.5-0.2-0.7c0.1-0.1,0.3-0.1,0.4,0c0.3,0.2,0.4,0.2,0.7,0l3.5-2.6c0.6-0.4,0.6-0.6,0.5-0.9c-0.1-0.2-0.1-0.4,0-0.5
		c0.3-0.2,0.5,0,0.6,0.2l0.8,1.1c0.2,0.3,0.2,0.4,0.2,0.7c-0.1,0.8-0.4,1.6-1.6,5l2.7-2c0.3-0.2,0.3-0.3,0.2-0.7
		c0-0.2,0-0.3,0.1-0.4c0.2-0.2,0.4,0,0.6,0.4l0.5,0.7c0.2,0.3,0.4,0.5,0.2,0.7c-0.1,0.1-0.3,0.1-0.4,0c-0.3-0.2-0.4-0.2-0.7,0
		l-4.3,3.2C21.2,92.6,21.1,92.6,20.7,92.2z M27.7,98.8c-0.2,0.2-0.4,0.1-0.6-0.1L26,97.5c-0.2-0.2-0.4-0.4-0.2-0.6
		c0.2-0.2,0.5,0.1,0.7-0.1c0.1-0.1,0.3-0.4,0.7-1.4l-2-1.9c-0.7,0.3-1,0.5-1.2,0.7c-0.3,0.3,0.1,0.6-0.1,0.9c-0.2,0.2-0.5,0-0.7-0.2
		l-0.6-0.6c-0.2-0.2-0.4-0.4-0.2-0.6c0.1-0.1,0.2-0.1,0.4-0.1c0.2,0,0.3,0.1,0.4,0c1.7-1,3.7-1.9,5.9-2.6c0.4-0.1,0.5,0,0.8,0.3
		c0.4,0.3,0.3,0.4,0.2,0.8c-0.6,2.1-1.5,4.1-2.4,6c-0.1,0.1-0.1,0.2,0,0.4C27.8,98.6,27.8,98.7,27.7,98.8z M35.1,102.9
		c-0.2,0.3-0.6,0.3-1.5,0.1c-0.7-0.2-1.2-0.4-1.9-0.8c-1.8-1.2-2.5-3.3-1.2-5.3c1.3-1.9,3.7-2.1,5.6-0.8c0.6,0.4,1.2,1,1.5,1.7
		c0.1,0.2,0.2,0.3,0.1,0.5c0,0.2-0.3,0.6-0.4,0.8c-0.3,0.4-0.4,0.4-0.6,0.3c-0.2-0.1-0.2-0.3-0.1-0.5c0.2-0.8-0.1-1.6-0.8-2
		c-1.4-0.9-2.9,0-3.7,1.2c-0.7,1-1,2.7,0.2,3.6c0.3,0.2,0.7,0.4,1.1,0.3c0.4-0.1,0.7-0.5,0.9-0.8c0.4-0.5,0.4-0.7-0.1-1.1
		c-0.4-0.3-0.6-0.4-0.4-0.7c0.2-0.3,0.4-0.2,0.8,0.1l1.3,0.9c0.7,0.5,0.7,0.6,0.6,0.8c-0.1,0.2-0.4,0.3-0.7,0.9
		C35.3,102.4,35.2,102.8,35.1,102.9z M41.5,100.1c-0.9-0.4-1-0.3-1.1-0.1l-0.8,1.6l1.3,0.6c0.6,0.3,0.7-0.1,1,0.1
		c0.3,0.1,0.1,0.5,0,0.8c-0.1,0.2-0.3,0.8-0.7,0.6c-0.3-0.1-0.1-0.4-0.7-0.7l-1.3-0.6l-0.7,1.5c-0.4,0.9-0.4,1,0.8,1.6
		c0.5,0.2,0.9,0.4,1.5,0.1c0.2-0.1,0.5-0.3,0.8-0.2c0.2,0.1,0.3,0.3,0.2,0.4c-0.1,0.2-0.4,0.5-0.6,0.7c-0.3,0.3-0.4,0.3-0.8,0.1
		l-4.3-2c-0.2-0.1-0.4-0.3-0.3-0.5c0.1-0.2,0.2-0.2,0.4-0.2c0.3,0,0.4-0.1,0.5-0.4l2-4.2c0.2-0.3,0.2-0.5,0-0.6
		c-0.2-0.2-0.2-0.3-0.1-0.4c0.1-0.2,0.4-0.2,0.6-0.1l4.1,2c0.3,0.1,0.4,0.2,0.4,0.3c0,0.2-0.2,0.7-0.2,0.9c-0.1,0.2-0.3,0.3-0.5,0.2
		c-0.2-0.1-0.2-0.3-0.3-0.5C42.5,100.7,42.4,100.5,41.5,100.1z M52.8,103.6c-0.5,0-0.5,0.2-0.6,0.5c-0.3,1-0.7,2.9-1.1,4.6
		c-0.1,0.3-0.1,0.4,0,0.6c0.2,0.2,0.3,0.2,0.2,0.4c-0.1,0.3-0.3,0.3-0.6,0.2l-1.8-0.5c-0.2-0.1-0.4-0.2-0.4-0.4
		c0-0.2,0.2-0.2,0.3-0.2c0.3,0,0.3-0.2,0.4-0.5c0.4-1.4,0.7-2.8,1-4.1c-0.9,1.2-1.7,2.3-2.6,3.4c-0.3,0.4-0.4,0.5-0.8,0.3
		c-0.4-0.1-0.5-0.2-0.6-0.6c-0.3-1.4-0.5-2.8-0.6-4.4c-0.5,1.4-0.9,2.8-1.2,4c-0.1,0.3,0,0.5,0.3,0.7c0.1,0.1,0.2,0.2,0.1,0.4
		c-0.1,0.3-0.4,0.2-0.8,0.1l-0.8-0.2c-0.3-0.1-0.6-0.2-0.5-0.5c0-0.2,0.1-0.2,0.3-0.2c0.4-0.1,0.4-0.1,0.5-0.5
		c0.3-1.3,1.4-4.5,1.5-4.7c0-0.2-0.1-0.3-0.3-0.5c-0.2-0.1-0.3-0.2-0.3-0.4c0.1-0.3,0.4-0.2,0.6-0.2l1.8,0.5
		c0.5,0.1,0.4,0.4,0.4,0.7c0.1,1.4,0.2,2.6,0.4,3.9c0.8-1,1.7-2.1,2.5-3.2c0.2-0.3,0.3-0.4,0.7-0.3l1.6,0.4c0.2,0.1,0.4,0.2,0.4,0.5
		C53,103.5,52.9,103.6,52.8,103.6z M59.5,104.5c0,0.2-0.1,0.4-0.4,0.4c-0.2,0-0.3-0.2-0.4-0.3c-0.3-0.4-0.5-0.5-1.6-0.6
		c-1-0.1-1.1,0.1-1.1,0.3l-0.2,1.8l1.5,0.1c0.7,0.1,0.6-0.3,1-0.3c0.3,0,0.3,0.5,0.3,0.7c0,0.3,0,0.8-0.4,0.8
		c-0.3,0-0.2-0.4-0.9-0.4l-1.5-0.1l-0.2,1.7c-0.1,1,0,1.1,1.3,1.2c0.6,0.1,1,0.1,1.4-0.4c0.2-0.2,0.4-0.4,0.7-0.4
		c0.2,0,0.3,0.2,0.3,0.4c0,0.3-0.2,0.6-0.3,0.9c-0.2,0.4-0.2,0.4-0.7,0.4l-4.8-0.4c-0.2,0-0.5-0.1-0.4-0.4c0-0.2,0.1-0.2,0.3-0.3
		c0.3-0.1,0.3-0.2,0.3-0.6l0.4-4.7c0-0.4,0-0.5-0.2-0.6c-0.2-0.1-0.3-0.2-0.3-0.4c0-0.3,0.3-0.3,0.5-0.3l4.6,0.4
		c0.3,0,0.5,0.1,0.5,0.2C59.5,103.8,59.5,104.3,59.5,104.5z M67.2,103.8c-0.4,0.2-0.4,0.2-0.4,0.6l0.3,5.3c0,0.6,0,0.7-0.6,0.7
		c-0.2,0-0.4,0-0.5-0.1c-0.5-0.7-2.5-3.2-4.1-5l0.3,4.1c0,0.4,0.1,0.5,0.5,0.6c0.2,0.1,0.3,0.1,0.3,0.3c0,0.3-0.3,0.3-0.7,0.3
		l-0.8,0c-0.3,0-0.7,0-0.7-0.3c0-0.2,0.1-0.3,0.2-0.3c0.3-0.2,0.4-0.2,0.4-0.6l-0.3-4.3c0-0.7-0.1-0.8-0.5-0.9
		c-0.2,0-0.4-0.1-0.4-0.3c0-0.3,0.3-0.4,0.5-0.4l1.3-0.1c0.4,0,0.4,0,0.7,0.2c0.6,0.6,1.2,1.2,3.4,4.1l-0.2-3.3
		c0-0.4-0.1-0.4-0.5-0.6c-0.2-0.1-0.2-0.1-0.3-0.3c0-0.3,0.3-0.3,0.6-0.3l0.9,0c0.3,0,0.7,0,0.7,0.3
		C67.4,103.6,67.3,103.7,67.2,103.8z M74.2,103.3c-0.4,0.1-0.7-0.7-1.8-0.4c-0.4,0.1-0.4,0.2-0.3,0.6l1,4.6c0.1,0.3,0.1,0.5,0.3,0.5
		c0.2,0.1,0.3,0.1,0.4,0.3c0.1,0.3-0.2,0.4-0.4,0.4l-1.8,0.4c-0.2,0-0.5,0-0.5-0.2c0-0.2,0.1-0.3,0.2-0.4c0.2-0.2,0.2-0.3,0.1-0.7
		l-1-4.6c-0.1-0.4-0.1-0.5-0.5-0.4c-1.1,0.2-1,1.1-1.4,1.2c-0.2,0-0.3-0.1-0.4-0.3c0-0.1,0-0.2,0-0.6c0-0.6,0.1-0.6,0.5-0.7l4.9-1.1
		c0.4-0.1,0.5-0.1,0.8,0.5c0.1,0.3,0.2,0.4,0.2,0.5C74.5,103,74.4,103.2,74.2,103.3z M82.3,105.6c-2.2,1.1-3.3,0.2-3.5-0.2
		c-0.1-0.2-0.1-0.6,0.2-0.7c0.2-0.1,0.3-0.1,1,0.3c0.4,0.2,1,0.4,1.9,0c0.6-0.3,1.2-1,0.8-1.7c-0.8-1.5-4,1.5-5.2-1.1
		c-0.2-0.4-0.7-2.2,1.6-3.3c0.7-0.3,1.4-0.5,2.2-0.5c0.1,0,0.3,0,0.4,0.1c0.2,0.2,0.3,0.5,0.5,0.8c0.1,0.2,0.1,0.4-0.1,0.5
		c-0.5,0.2-1-1-2.5-0.3c-0.5,0.2-1,0.8-0.7,1.4c0.8,1.6,3.9-1.4,5.2,1.1C84.5,102.9,84.3,104.6,82.3,105.6z M89.9,100.8l-1.5,1.1
		c-0.2,0.1-0.4,0.2-0.6,0c-0.1-0.1,0-0.3,0-0.4c0.1-0.2,0.1-0.4-0.1-0.7l-0.9-1.3c-1.3-0.4-2.4-0.8-3.5-1.4C83,98,82.9,98,82.6,98
		c-0.2,0-0.3,0-0.4-0.1c-0.2-0.3,0.1-0.5,0.4-0.7l1.5-1c0.2-0.1,0.4-0.3,0.6,0c0.2,0.2-0.2,0.5-0.1,0.7c0.2,0.2,0.7,0.5,2.9,1.3
		c0.1-1.9,0-2.8-0.2-3.1c-0.2-0.2-0.5,0.1-0.7-0.2c-0.2-0.2,0-0.4,0.2-0.6l0.7-0.5c0.3-0.2,0.5-0.4,0.7-0.1c0.1,0.1,0.1,0.3,0,0.4
		c-0.1,0.2-0.1,0.3-0.1,0.6c0.1,1.3,0.2,2.6,0.1,3.8l1,1.4c0.2,0.2,0.3,0.4,0.5,0.3c0.2,0,0.4,0,0.5,0.1
		C90.3,100.4,90.1,100.7,89.9,100.8z M95.3,96.4c-1.7,1.7-3.1,1.2-3.4,0.9c-0.2-0.2-0.2-0.5,0-0.7c0.2-0.2,0.3-0.2,1,0
		c0.4,0.1,1.1,0,1.8-0.6c0.5-0.5,0.8-1.3,0.3-1.9c-1.2-1.2-3.3,2.6-5.3,0.6c-0.3-0.3-1.3-1.9,0.5-3.6c0.5-0.5,1.2-0.9,1.9-1.2
		c0.1,0,0.3,0,0.4,0c0.2,0.1,0.5,0.4,0.7,0.6c0.2,0.2,0.2,0.4,0,0.5c-0.4,0.4-1.3-0.7-2.5,0.4c-0.4,0.4-0.7,1.1-0.2,1.5
		c1.2,1.3,3.3-2.6,5.3-0.5C96.5,93.2,96.9,94.8,95.3,96.4z M100.8,89.8l-1.1,1.5c-0.1,0.2-0.3,0.3-0.6,0.2c-0.1-0.1-0.1-0.2-0.1-0.4
		c0.1-0.3,0-0.4-0.3-0.6L95,87.7c-0.3-0.2-0.4-0.3-0.7,0c-0.7,0.9-0.1,1.4-0.3,1.8c-0.1,0.2-0.3,0.2-0.5,0c-0.1-0.1-0.2-0.1-0.4-0.4
		c-0.4-0.5-0.4-0.5-0.1-0.9l3-4c0.3-0.3,0.3-0.4,0.9-0.1c0.3,0.2,0.4,0.2,0.5,0.3c0.2,0.1,0.2,0.3,0.1,0.5c-0.3,0.4-1-0.1-1.6,0.8
		c-0.2,0.3-0.1,0.4,0.2,0.6l3.7,2.8c0.2,0.2,0.4,0.3,0.6,0.2c0.2-0.1,0.3-0.2,0.5,0C101.1,89.4,101,89.6,100.8,89.8z M105.5,81.6
		l-2.3,4.2c-0.1,0.2-0.3,0.4-0.5,0.3c-0.2-0.1-0.2-0.2-0.1-0.4c0-0.3-0.1-0.4-0.4-0.5L98,83c-0.3-0.2-0.5-0.2-0.6-0.1
		c-0.2,0.2-0.3,0.2-0.4,0.1c-0.2-0.1-0.2-0.4-0.1-0.6l2.2-4c0.1-0.3,0.2-0.4,0.4-0.4c0.2,0,0.7,0.2,0.9,0.3c0.2,0.1,0.3,0.3,0.2,0.5
		c-0.1,0.2-0.3,0.2-0.5,0.3c-0.5,0.1-0.7,0.3-1.2,1.2c-0.5,0.9-0.3,1-0.2,1.1l1.6,0.9l0.7-1.3c0.3-0.6,0-0.7,0.1-1
		c0.2-0.3,0.5-0.1,0.8,0c0.2,0.1,0.7,0.3,0.6,0.7c-0.2,0.3-0.4,0.1-0.7,0.6l-0.7,1.3l1.5,0.8c0.9,0.5,1,0.4,1.7-0.8
		c0.3-0.5,0.4-0.9,0.2-1.5c-0.1-0.2-0.2-0.6-0.1-0.8c0.1-0.2,0.3-0.2,0.5-0.2c0.2,0.1,0.5,0.4,0.7,0.6
		C105.7,81.2,105.7,81.3,105.5,81.6z M108.5,73.2c-0.1,0.2-0.2,0.4-0.5,0.4c-0.2-0.1-0.2-0.2-0.2-0.3c0-0.3-0.2-0.3-0.5-0.5
		c-1.4-0.5-2.8-0.8-4.1-1.2c1.1,0.9,2.2,1.8,3.3,2.8c0.4,0.3,0.4,0.4,0.3,0.8c-0.1,0.4-0.2,0.5-0.6,0.6c-1.4,0.2-2.8,0.3-4.4,0.4
		c1.4,0.5,2.7,1.1,3.9,1.5c0.3,0.1,0.5,0,0.7-0.3c0.1-0.1,0.2-0.2,0.4-0.1c0.3,0.1,0.2,0.4,0.1,0.8l-0.3,0.8
		c-0.1,0.2-0.2,0.6-0.5,0.5c-0.2-0.1-0.2-0.2-0.2-0.3c0-0.4-0.1-0.4-0.4-0.6c-1.3-0.4-4.4-1.6-4.6-1.7c-0.2-0.1-0.3,0.1-0.5,0.3
		c-0.1,0.2-0.2,0.3-0.4,0.2c-0.3-0.1-0.2-0.4-0.1-0.6l0.6-1.8c0.1-0.4,0.5-0.4,0.8-0.4c1.4,0,2.6-0.1,3.9-0.2
		c-0.9-0.9-2-1.8-3.1-2.7c-0.3-0.2-0.4-0.3-0.2-0.7l0.5-1.6c0.1-0.2,0.2-0.4,0.5-0.3c0.2,0.1,0.2,0.2,0.2,0.3c0,0.5,0.1,0.5,0.5,0.6
		c1,0.3,2.9,0.8,4.5,1.4c0.3,0.1,0.4,0.1,0.6,0s0.3-0.2,0.4-0.2c0.3,0.1,0.2,0.4,0.2,0.6L108.5,73.2z M25.9,93.1l1.6,1.5
		c0.4-0.9,0.8-1.8,1-2.6C27.6,92.3,26.8,92.7,25.9,93.1z M18,82.3c0.7-0.7,1.3-1.4,1.8-2.2c-0.9,0-1.8,0.1-2.8,0.2L18,82.3z
		 M17,80.3l1,2c0.7-0.7,1.3-1.4,1.8-2.2C18.9,80.1,18.1,80.2,17,80.3z M25.9,93.1l1.6,1.5c0.4-0.9,0.8-1.8,1-2.6
		C27.6,92.3,26.8,92.7,25.9,93.1z M25.9,93.1l1.6,1.5c0.4-0.9,0.8-1.8,1-2.6C27.6,92.3,26.8,92.7,25.9,93.1z M17,80.3l1,2
		c0.7-0.7,1.3-1.4,1.8-2.2C18.9,80.1,18.1,80.2,17,80.3z M17,80.3l1,2c0.7-0.7,1.3-1.4,1.8-2.2C18.9,80.1,18.1,80.2,17,80.3z
		 M25.9,93.1l1.6,1.5c0.4-0.9,0.8-1.8,1-2.6C27.6,92.3,26.8,92.7,25.9,93.1z M25.9,93.1l1.6,1.5c0.4-0.9,0.8-1.8,1-2.6
		C27.6,92.3,26.8,92.7,25.9,93.1z M17,80.3l1,2c0.7-0.7,1.3-1.4,1.8-2.2C18.9,80.1,18.1,80.2,17,80.3z M17,80.3l1,2
		c0.7-0.7,1.3-1.4,1.8-2.2C18.9,80.1,18.1,80.2,17,80.3z M25.9,93.1l1.6,1.5c0.4-0.9,0.8-1.8,1-2.6C27.6,92.3,26.8,92.7,25.9,93.1z
		 M25.9,93.1l1.6,1.5c0.4-0.9,0.8-1.8,1-2.6C27.6,92.3,26.8,92.7,25.9,93.1z M17,80.3l1,2c0.7-0.7,1.3-1.4,1.8-2.2
		C18.9,80.1,18.1,80.2,17,80.3z M17,80.3l1,2c0.7-0.7,1.3-1.4,1.8-2.2C18.9,80.1,18.1,80.2,17,80.3z M25.9,93.1l1.6,1.5
		c0.4-0.9,0.8-1.8,1-2.6C27.6,92.3,26.8,92.7,25.9,93.1z M25.9,93.1l1.6,1.5c0.4-0.9,0.8-1.8,1-2.6C27.6,92.3,26.8,92.7,25.9,93.1z
		 M17,80.3l1,2c0.7-0.7,1.3-1.4,1.8-2.2C18.9,80.1,18.1,80.2,17,80.3z M17,80.3l1,2c0.7-0.7,1.3-1.4,1.8-2.2
		C18.9,80.1,18.1,80.2,17,80.3z M25.9,93.1l1.6,1.5c0.4-0.9,0.8-1.8,1-2.6C27.6,92.3,26.8,92.7,25.9,93.1z M25.9,93.1l1.6,1.5
		c0.4-0.9,0.8-1.8,1-2.6C27.6,92.3,26.8,92.7,25.9,93.1z M17,80.3l1,2c0.7-0.7,1.3-1.4,1.8-2.2C18.9,80.1,18.1,80.2,17,80.3z
		 M17,80.3l1,2c0.7-0.7,1.3-1.4,1.8-2.2C18.9,80.1,18.1,80.2,17,80.3z M25.9,93.1l1.6,1.5c0.4-0.9,0.8-1.8,1-2.6
		C27.6,92.3,26.8,92.7,25.9,93.1z M25.9,93.1l1.6,1.5c0.4-0.9,0.8-1.8,1-2.6C27.6,92.3,26.8,92.7,25.9,93.1z M17,80.3l1,2
		c0.7-0.7,1.3-1.4,1.8-2.2C18.9,80.1,18.1,80.2,17,80.3z M17,80.3l1,2c0.7-0.7,1.3-1.4,1.8-2.2C18.9,80.1,18.1,80.2,17,80.3z
		 M17,80.3l1,2c0.7-0.7,1.3-1.4,1.8-2.2C18.9,80.1,18.1,80.2,17,80.3z"/>
	<path class="st0" d="M99,55.6c0.1,0.7,0.1,1.5,0.2,2.2H114c0-0.7-0.1-1.5-0.1-2.2H99L99,55.6z"/>
	<polygon class="st1" points="36,57.8 36.5,56.6 35.4,55.8 36.6,55.8 36.9,54.9 37.4,55.8 38.4,55.8 37.5,56.6 37.8,57.8 36.9,57 
		36,57.8 	"/>
	<polygon class="st1" points="35,61.8 35.4,60.7 34.4,59.9 35.6,59.9 35.9,58.9 36.3,59.9 37.4,59.9 36.5,60.7 36.9,61.8 35.9,61.2 
		35,61.8 	"/>
	<polygon class="st1" points="35.9,65.5 36.2,64.4 35.3,63.6 36.5,63.6 36.8,62.5 37.1,63.6 38.3,63.6 37.4,64.4 37.7,65.5 
		36.8,64.7 35.9,65.5 	"/>
	<polygon class="st1" points="38.7,68.4 39,67.1 38.1,66.4 39.2,66.4 39.6,65.3 39.9,66.4 41.1,66.4 40.2,67.1 40.5,68.2 39.6,67.6 
		38.7,68.4 	"/>
	<polygon class="st1" points="42.3,69.6 42.8,68.4 41.9,67.6 42.9,67.6 43.2,66.5 43.7,67.6 44.7,67.6 43.8,68.4 44.1,69.6 
		43.2,68.8 42.3,69.6 	"/>
	<polygon class="st1" points="46.4,68.2 46.7,67.1 45.8,66.4 46.8,66.4 47.3,65.3 47.6,66.4 48.8,66.4 47.9,67.1 48.2,68.2 
		47.3,67.4 46.4,68.2 	"/>
	<polygon class="st1" points="48.9,65.5 49.2,64.2 48.3,63.5 49.5,63.5 49.8,62.4 50.1,63.5 51.3,63.5 50.4,64.2 50.7,65.5 
		49.8,64.7 48.9,65.5 	"/>
	<polygon class="st1" points="49.8,61.8 50.1,60.7 49.2,59.9 50.4,59.9 50.7,58.9 51,59.9 52.2,59.9 51.3,60.7 51.6,61.8 50.7,61.2 
		49.8,61.8 	"/>
	<polygon class="st1" points="48.6,57.6 48.9,56.6 48,55.8 49.1,55.8 49.5,54.7 49.8,55.8 51,55.8 50,56.6 50.4,57.6 49.5,57 
		48.6,57.6 	"/>
	<polygon class="st1" points="45.9,54.9 46.2,53.8 45.3,53.1 46.5,53.1 46.8,52 47.3,53.1 48.3,53.1 47.4,53.8 47.7,54.9 46.8,54.3 
		45.9,54.9 	"/>
	<polygon class="st1" points="42.3,54.1 42.6,52.9 41.7,52.1 42.8,52.1 43.2,51.2 43.5,52.1 44.7,52.1 43.8,52.9 44.1,54 43.2,53.4 
		42.3,54.1 	"/>
	<polygon class="st1" points="38.6,54.9 38.9,53.8 38,53.1 39.2,53.1 39.5,52 39.8,53.1 41,53.1 40.1,53.8 40.4,54.9 39.5,54.3 
		38.6,54.9 	"/>
	<polygon class="st1" points="43.7,64.7 44.1,63.5 43.2,62.7 44.3,62.7 44.7,61.6 45,62.7 46.2,62.7 45.3,63.5 45.6,64.7 44.7,63.9 
		43.7,64.7 	"/>
	<polygon class="st1" points="48.5,71.6 48.9,70.3 47.9,69.6 49.1,69.6 49.4,68.5 49.8,69.6 50.9,69.6 50,70.3 50.4,71.4 49.4,70.8 
		48.5,71.6 	"/>
	<polygon class="st0" points="32.2,67.9 28.3,67.9 28.3,51.9 32.2,51.9 32.2,67.9 	"/>
	<polygon class="st0" points="66.7,67.9 63.9,67.9 56.3,57.6 56.3,67.9 53,67.9 53,51.9 56.1,51.9 63.3,61.7 63.3,51.9 66.7,51.9 
		66.7,67.9 	"/>
	<path class="st0" d="M77.2,60.5c-0.2-1.6-1.1-2.6-2.6-2.6c-1.5,0-2.4,1-2.6,2.6H77.2L77.2,60.5L77.2,60.5z M80.3,66.5
		c-2.2,1.6-4.4,1.6-5.3,1.6c-4.2,0-6.9-2.4-6.9-6.2c0-3.7,2.6-6.2,6.3-6.2c3.5,0,6.3,2.5,6.2,6.8H72c0.1,2.1,1.6,3.4,3.9,3.4
		c1.5,0,2.7-0.4,4.4-1.7V66.5L80.3,66.5z"/>
	<path class="st0" d="M91,58.5h-4.4v4.9c0,1.2,0.7,1.9,1.8,1.9c0.8,0,1.5-0.2,2.5-0.7v2.7c-1.3,0.5-2.3,0.8-3.5,0.8
		c-2.5,0-4.6-1.1-4.6-4.5v-5.1h-1.7v-0.7l5-5.6h0.5v3.8H91V58.5L91,58.5z"/>
	<polygon class="st1" points="95.1,49.9 25.2,49.9 25.2,46.4 95.1,46.4 95.1,49.9 	"/>
	<polygon class="st1" points="95.1,74.3 25.2,74.3 25.2,72.5 95.1,72.5 95.1,74.3 	"/>
</g>
</svg>
