<?xml version="1.0" encoding="utf-8"?>
<!-- Generator: Adobe Illustrator 24.0.1, SVG Export Plug-In . SVG Version: 6.00 Build 0)  -->
<!DOCTYPE svg PUBLIC "-//W3C//DTD SVG 1.1//EN" "http://www.w3.org/Graphics/SVG/1.1/DTD/svg11.dtd" [
	<!ENTITY ns_extend "http://ns.adobe.com/Extensibility/1.0/">
	<!ENTITY ns_ai "http://ns.adobe.com/AdobeIllustrator/10.0/">
	<!ENTITY ns_graphs "http://ns.adobe.com/Graphs/1.0/">
	<!ENTITY ns_vars "http://ns.adobe.com/Variables/1.0/">
	<!ENTITY ns_imrep "http://ns.adobe.com/ImageReplacement/1.0/">
	<!ENTITY ns_sfw "http://ns.adobe.com/SaveForWeb/1.0/">
	<!ENTITY ns_custom "http://ns.adobe.com/GenericCustomNamespace/1.0/">
	<!ENTITY ns_adobe_xpath "http://ns.adobe.com/XPath/1.0/">
]>
<svg version="1.1" id="Capa_1" xmlns:x="&ns_extend;" xmlns:i="&ns_ai;" xmlns:graph="&ns_graphs;"
	 xmlns="http://www.w3.org/2000/svg" xmlns:xlink="http://www.w3.org/1999/xlink" x="0px" y="0px" viewBox="0 0 120 120"
	 style="enable-background:new 0 0 120 120;" xml:space="preserve">
<style type="text/css">
	.st0{fill:#FFFFFF;}
	.st1{fill-rule:evenodd;clip-rule:evenodd;fill:#FFFFFF;}
</style>
<metadata>
	<sfw  xmlns="&ns_sfw;">
		<slices></slices>
		<sliceSourceBounds  bottomLeftOrigin="true" height="107.9" width="251" x="3" y="-114"></sliceSourceBounds>
	</sfw>
</metadata>
<g>
	<g>
		<g>
			<path class="st0" d="M115.3,50.2c-1.1-2.8-3.3-5.4-6-7.2c-7.8-5-19.8-5.3-27.8-0.8c-4.4,2.2-7.3,6.7-8.2,11.3
				c-1.6,7.5-1.2,16.4,4.6,22.1c6.7,5.9,16.6,7.2,25.3,4.8c0.4-0.1,1.7-0.4,2.6-0.9l0.3-0.1c2.7-1.1,5.3-3,7.2-5.4
				C117.7,67.3,118,57.5,115.3,50.2 M101,67.1c-0.3,1.4-1.3,2.9-2.8,3.4c-2.4,1.1-5.7,0.8-7.9-0.5c-1.9-1.3-2.1-3.5-2.3-5.6
				c-0.2-4.1-0.5-8.4,0.7-12.1c0.9-2.3,3.4-2.9,5.6-3.1c2.3,0,4.6,0.4,6.1,2.3c0.9,1.4,0.8,3.1,1,4.7
				C101.3,59.6,101.6,63.6,101,67.1 M29.7,70.7c-2-0.1-4.2,0.1-6.1-0.2l0.1-20.8l0.1-0.2l6-0.1c0.1-3.4,0.1-7-0.1-10.1L6.9,39.4
				l-3.7,0.1c-0.1,3.1-0.1,6.8,0,10c2,0.1,4,0,6,0.2v20.1l-0.1,0.8l-6,0.1C3,74,3,77.2,3.1,80.5h26.6L29.7,70.7L29.7,70.7z
				 M96.5,84.9c-2.5,3.6-5.7,7.1-9.2,9.8c-0.1,0.2-0.5,0.1-0.6-0.1c-1.5-0.9-3.1-1.7-4.6-2.7c1.9-2.3,3.8-4.6,5.2-7.2h-1.9
				c-1.5,2.2-3.1,4.5-5.1,6.5c-2.7-1.1-5.1-2-7.8-2.7l-0.3-0.2c0.4-1.2,1.2-2.3,1.4-3.5h-1.6l-1.6,3.2c-3.5-0.8-7.5-1.2-11.1-1.4
				c-0.2-0.5,0.1-1.3-0.2-1.8h-1.6c-0.1,0.7,0.2,1.2-0.2,1.8c-3.7,0.2-7.3,0.6-10.8,1.3l-1.6-3.1c-0.6,0-1.3-0.1-1.7,0.1l1.5,3.5
				l-0.2,0.2c-2.7,0.8-5.4,1.7-8,2.8l-0.2-0.1c-1.7-1.8-3.3-3.8-4.6-5.9c-0.3-1-1.5-0.4-2.2-0.5c1.4,2.6,3.4,4.9,5.3,7.3
				c-1.6,0.9-3.2,2-4.9,2.8c-3.7-2.8-6.9-6.2-9.5-10c-0.7-0.1-1.2-0.1-1.9,0c4.3,6.7,11.1,12.7,18.1,16.2c0,0,0-0.1,0.1-0.1
				c0.1,0,0.2,0.1,0.1,0.2c4.8,2.3,9.8,4,15.2,4.7c18.5,2.4,36.1-5.4,46.4-21C97.8,84.9,97.2,84.9,96.5,84.9 M71.4,90.3l0.2-0.1
				c2.6,0.6,5.1,1.4,7.4,2.5c-1.9,2.2-4.4,4.1-6.7,5.7c-1.4,0.8-2.8,1.7-4.2,2.4l-2.6-1.1l0.2-0.4C67.8,96.4,69.7,93.4,71.4,90.3
				 M59.5,88.5c3.4,0.1,6.9,0.4,10.1,1.2l0.1,0.2C68,93,65.9,96.1,63.6,99c-1,0.1-2-0.3-3-0.4l-1-0.1C59.4,95.1,59.4,92,59.5,88.5
				 M47.9,89.5c3.1-0.6,6.4-1.1,9.8-1.1l0.1,10c-1.3,0.3-2.7,0.3-3.9,0.6c-2.5-2.9-4.5-6-6.3-9.3L47.9,89.5L47.9,89.5z M38.2,92.7
				c2.4-1.1,4.8-2,7.3-2.6l0.2,0.1c1.7,3.3,3.9,6.3,6.1,9.4c-0.8,0.5-1.9,0.8-2.7,1.2c-4.1-2-7.8-4.7-11-7.9L38.2,92.7L38.2,92.7z
				 M46,102.9c-5.1-1.3-9.8-3.6-14.1-6.6v-0.2c1.4-0.9,2.9-1.8,4.5-2.5c3.4,3.4,7,5.9,10.8,8.4C46.9,102.3,46.4,102.6,46,102.9
				 M68.3,103.6c-6.4,1.4-13.5,1.4-19.9-0.1c-0.1-0.3,0.3-0.4,0.5-0.5c5.6-3.6,14.3-3.6,19.8,0.3C68.9,103.6,68.5,103.5,68.3,103.6
				 M74.1,102l-2.8,0.9c-0.5-0.2-0.9-0.6-1.3-0.9l0.1-0.2c3.9-2.2,7.3-5,10.7-8.2c1.6,0.6,3.2,1.5,4.6,2.5
				C82,98.7,78.1,100.5,74.1,102 M20.4,34.9c1.5-2.1,3.1-4,4.9-5.9c1.6-1.5,3-2.9,4.7-4c1.6,1,3.3,1.8,4.8,2.8
				C33,30.2,31,32.5,29.7,35c0.4,0.2,1.2,0.1,1.8,0c1.5-2.2,3.1-4.4,5.1-6.3c2.6,0.9,5.1,2,7.8,2.7l0.2,0.2L43,35
				c0.7,0.1,1.1,0.1,1.7,0c0.5-1,1-2.1,1.6-3.1c3.5,0.8,7.2,1.2,10.9,1.3c0.5,0.4,0.1,1.3,0.3,1.8h1.6c0.2-0.6-0.1-1.2,0.2-1.8
				c3.5-0.2,7.2-0.5,10.6-1.4l0.3,0.1l1.6,3.1c0.5,0,1.3,0.1,1.7-0.1L72,31.4l0.1-0.1c2.8-0.7,5.4-1.8,8-2.8c1.9,2,3.6,4.3,5.2,6.5
				c0.7,0,1.3,0.1,1.8-0.1c-0.7-1.3-1.6-2.6-2.6-3.7c-0.8-1.1-1.7-2.2-2.7-3.2v-0.3l4.2-2.4l0.6-0.2c3.7,2.8,6.9,6.1,9.5,9.9
				c0.7,0,1.3,0.2,1.9,0C90.1,22.7,76.8,15,62.4,13.8L62.3,14l-0.1-0.1c-1.6-0.2-3.6-0.2-5.4-0.1c-0.7-0.1-1.4,0-2.2,0.1
				C40.1,15,26.8,22.4,18.5,35C19.1,34.9,19.8,35.2,20.4,34.9 M45.4,29.7l-0.2,0.1c-2.5-0.6-4.9-1.4-7.2-2.4l0.1-0.4
				c3.3-3.1,6.8-5.7,10.7-7.8c0.9,0.4,1.8,0.6,2.7,1.1l-0.2,0.5C49.1,23.6,47.3,26.7,45.4,29.7 M57.4,31.3c-1.7,0.2-3.2-0.1-4.9-0.2
				c-1.6-0.2-3.7-0.4-5.3-0.9c1.7-3.2,3.8-6.4,6.3-9.3l3.9,0.5C57.6,24.5,57.4,28,57.4,31.3 M59.3,31.4c-0.1-3.1-0.1-6.6,0-9.9
				c1.2-0.2,2.5-0.4,3.7-0.5c2.3,3,4.6,6,6.2,9.2C66,31,62.6,31.4,59.3,31.4 M78.5,27.2c-2.4,1-4.8,1.9-7.4,2.5
				c-1.9-3.1-3.9-6.3-6.2-9.3c0.8-0.5,1.9-0.8,2.8-1.3c3.9,2,7.7,4.7,10.9,7.9L78.5,27.2z M70.8,17.1c5.1,1.3,9.8,3.6,14.2,6.6
				L84.8,24l-4.2,2.3h-0.3c-3.2-3.2-6.9-6-10.7-8.2C69.8,17.7,70.4,17.4,70.8,17.1 M68.4,16.5v0.1c-5.2,3.8-13.7,4.1-19.3,0.6
				c-0.3-0.2-0.9-0.4-1-0.8C54.5,15,62.1,14.9,68.4,16.5 M31.6,23.8c3.8-2.8,8-4.9,12.5-6.3c0.2-0.2,0.3-0.4,0.5-0.4v0.1
				c0.5,0.1,0.8-0.4,1.3-0.1c0.4,0.3,0.8,0.5,1.1,0.8c-3.7,2.3-7.4,5-10.8,8.3c-1.6-0.6-3.1-1.5-4.6-2.5L31.6,23.8L31.6,23.8z
				 M57.5,71.2c-5.7,1.5-11.8,0.4-15.9-3.9c-0.5-0.6-0.8-1.3-1.3-1.9l-8.1,0.1c-0.1,4.8-0.2,10.3,0,15l9-0.1l0.1-2.8
				c1,0.5,2.1,1.1,3.1,1.6c6.3,2.6,14.3,3.2,20.5,0c4.5-2.5,6.9-7.3,6.3-12.4c-0.7-5-5.5-9.6-10.4-10.8l-14.6-4.2l-1.1-0.5
				c-0.5-0.4-0.8-0.9-0.7-1.6c1.1-1.9,3.8-1.4,5.8-1.3c4.2,0.6,8.6,2,11,5.9c2.6,0,5.7,0.1,8.6-0.1c0.1-4.9,0-9.1-0.1-14
				c-2.7-0.1-6-0.1-8.7,0.1c-0.1,0.7,0.1,1.7-0.2,2.4l-2.8-1.5c-6.6-2.8-15.9-3.1-21.9,1.2c-3.9,2.8-5.1,7.9-4.1,12.4
				c0.8,4.3,4.9,7.4,8.8,8.9c5.4,1.9,11,3.3,16.4,5.1c0.5,0.2,1.3,0.8,1.1,1.4C58.5,70.7,57.9,71,57.5,71.2"/>
		</g>
	</g>
</g>
</svg>
