<?xml version="1.0" encoding="utf-8"?>
<!-- Generator: Adobe Illustrator 16.0.0, SVG Export Plug-In . SVG Version: 6.00 Build 0)  -->
<!DOCTYPE svg PUBLIC "-//W3C//DTD SVG 1.1//EN" "http://www.w3.org/Graphics/SVG/1.1/DTD/svg11.dtd">
<svg version="1.1" xmlns="http://www.w3.org/2000/svg" xmlns:xlink="http://www.w3.org/1999/xlink" x="0px" y="0px" width="420px"
	 height="120px" viewBox="0 0 420 120" enable-background="new 0 0 420 120" xml:space="preserve">
<g id="Capa_1" display="none">
	<g display="inline">
		<g>
			<path fill="#99999A" d="M154.063,62.125c0.836-0.982,1.611-2.052,2.521-2.931c6.478-6.236,12.98-12.439,19.479-18.641
				c4.977-4.747,9.97-9.474,14.951-14.217c3.304-3.149,6.58-6.341,9.908-9.459c2.929-2.747,7.053-2.736,9.986,0.041
				c5.034,4.77,10.031,9.594,15.04,14.392c0.102,0.096,0.216,0.169,0.465,0.361c0.028-0.455,0.069-0.775,0.069-1.096
				c0.004-4.144,0-8.287,0.004-12.431c0.004-2.348,0.636-3.077,2.66-3.079c3.729-0.003,7.453-0.004,11.177,0
				c1.909,0.002,2.586,0.78,2.586,2.979c0.004,9.458,0.012,18.916-0.013,28.373c-0.004,0.779,0.212,1.292,0.722,1.771
				c4.25,4.016,8.497,8.041,12.723,12.095c0.535,0.513,0.922,1.224,1.379,1.843c0,0.443,0,0.886,0,1.329
				c-1.35,1.903-2.696,3.816-4.059,5.708c-1.175,1.632-2.231,1.777-3.68,0.404c-3.863-3.664-7.702-7.366-11.548-11.049
				c-3.39-3.237-6.78-6.467-10.17-9.702c-3.492-3.337-6.988-6.672-10.479-10.013c-3.765-3.602-7.534-7.203-11.292-10.822
				c-0.437-0.423-0.75-0.436-1.195-0.003c-3.435,3.322-6.886,6.622-10.333,9.922c-3.431,3.279-6.865,6.549-10.296,9.825
				c-3.451,3.295-6.902,6.592-10.354,9.889c-3.851,3.681-7.706,7.361-11.557,11.041c-0.444,0.424-0.877,0.871-1.346,1.254
				c-1.085,0.877-2.077,0.812-2.945-0.34c-1.509-2.001-2.941-4.073-4.406-6.115C154.063,63.012,154.063,62.568,154.063,62.125z"/>
			<path fill="#99999A" d="M214.118,109.308c0-9.407,0-18.757,0-28.167c-0.363-0.021-0.632-0.047-0.902-0.047
				c-4.883-0.002-9.77,0.016-14.652-0.021c-0.73-0.006-0.93,0.222-0.93,1.059c0.028,8.64,0.016,17.276,0.016,25.916
				c0,0.402,0,0.806,0,1.34c-0.383,0-0.677,0-0.971,0c-7.73,0-15.457,0.002-23.183-0.002c-2.982,0-4.622-1.856-4.622-5.271
				c-0.008-11.36,0.004-22.719-0.021-34.078c0-0.856,0.277-1.371,0.84-1.901c5.715-5.362,11.397-10.765,17.096-16.149
				c5.021-4.74,10.047-9.468,15.069-14.207c1.334-1.26,2.66-2.536,4.026-3.839c2.023,1.912,4.001,3.773,5.976,5.639
				c5.764,5.442,11.528,10.884,17.292,16.33c4.422,4.177,8.844,8.352,13.245,12.557c0.273,0.261,0.49,0.795,0.49,1.201
				c0.024,11.645,0.037,23.287,0.008,34.933c-0.008,2.806-1.693,4.756-4.12,4.769c-8.057,0.037-16.117,0.014-24.174,0.012
				C214.493,109.381,214.387,109.348,214.118,109.308z"/>
		</g>
	</g>
</g>
<g id="Capa_2" display="none">
	<g display="inline">
		<path fill="#99999A" d="M199.439,44.875l-0.065-27.5h31.684v81.9h-59.117V44.862L199.439,44.875z M167.771,43.472v55.804v4.169
			h4.169h59.117h4.169v-4.169v-81.9v-4.17h-4.169h-32.761L167.771,43.472z"/>
		<rect x="173.719" y="58.178" fill="#99999A" width="45.716" height="3.648"/>
		<rect x="173.719" y="70.836" fill="#99999A" width="45.716" height="3.647"/>
		<rect x="173.719" y="83.494" fill="#99999A" width="45.716" height="3.649"/>
	</g>
</g>
<g id="Capa_3" display="none">
	<g display="inline">
		<path fill="#99999A" d="M186.002,52.258l14.118,24.465c1.856,3.214,4.892,3.214,6.752,0l14.126-24.46
			c1.856-3.213,0.339-5.843-3.373-5.844h-4.328l0.004-25.714c0-5.409-4.386-9.795-9.795-9.796c-5.408-0.001-9.794,4.383-9.794,9.793
			l-0.004,25.712h-4.332C185.664,46.413,184.146,49.043,186.002,52.258z"/>
		<path fill="#99999A" d="M235.508,109.092h-64.016c-3.251,0-5.911-2.66-5.911-5.909v-4.595c0-3.251,2.66-5.911,5.911-5.911h64.016
			c3.252,0,5.911,2.66,5.911,5.911v4.595C241.419,106.433,238.76,109.092,235.508,109.092z"/>
		<path fill="#99999A" d="M165.581,103.414V72.832c0-2.333,1.909-4.243,4.243-4.243h7.934c2.329,0,4.238,1.909,4.238,4.243v30.582
			c0,2.333-1.909,4.243-4.238,4.243h-7.934C167.49,107.656,165.581,105.747,165.581,103.414z"/>
		<path fill="#99999A" d="M225.004,103.414V72.832c0-2.333,1.909-4.243,4.242-4.243h7.931c2.333,0,4.242,1.909,4.242,4.243v30.582
			c0,2.333-1.909,4.243-4.242,4.243h-7.931C226.913,107.656,225.004,105.747,225.004,103.414z"/>
	</g>
</g>
<g id="Capa_4" display="none">
	<path display="inline" fill="#99999A" d="M189.274,14.374c2.586,0.983,3.618,3.158,4.181,5.616
		c1.122,4.898,2.183,9.81,3.235,14.723c0.159,0.742,0.204,1.52,0.216,2.282c0.033,2.352-1.068,3.947-3.287,4.744
		c-1.551,0.557-3.113,1.089-4.688,1.566c-1.525,0.462-2.374,1.517-2.733,2.989c-0.485,1.971-0.424,3.92,0.241,5.872
		c3.777,11.072,10.324,20.249,19.147,27.828c1.797,1.54,3.829,2.837,5.868,4.051c1.297,0.773,2.855,0.932,4.39,0.777
		c1.093-0.114,1.99-0.597,2.631-1.534c0.869-1.269,1.767-2.511,2.64-3.773c1.766-2.553,3.826-3.222,6.714-1.99
		c1.563,0.665,3.039,1.534,4.536,2.345c2.815,1.534,5.626,3.088,8.428,4.646c0.719,0.4,1.424,0.83,2.109,1.285
		c1.881,1.248,3.394,2.766,3.59,5.187c-0.09,0.618-0.18,1.238-0.27,1.858c-0.62,1.42-1.13,2.896-1.876,4.243
		c-3.313,5.988-8.322,9.631-15.143,10.61c-1.362,0.196-2.762,0.139-4.141,0.196c-1.072-0.155-2.142-0.31-3.21-0.465
		c-1.273-0.396-2.563-0.742-3.814-1.193c-6.282-2.266-11.591-6.084-16.527-10.468c-5.919-5.252-11.051-11.22-15.807-17.518
		c-5.829-7.712-11.112-15.758-14.935-24.684c-2.125-4.959-3.732-10.07-4.141-15.487c-0.118-1.577-0.081-3.166-0.118-4.75
		c0.155-1.07,0.311-2.14,0.465-3.21c0.09-0.236,0.204-0.466,0.27-0.709c2.105-7.828,7.253-12.577,14.975-14.606
		c1.682-0.44,3.46-0.478,5.193-0.7C188.034,14.194,188.654,14.284,189.274,14.374z"/>
</g>
<g id="Capa_5">
	<g>
		<polygon fill="#FFFFFF" points="58.183,24.536 42.702,78.769 42.14,78.769 26.937,24.536 7.888,24.536 27.78,94.906 
			57.056,94.906 77.604,24.536 		"/>
		<path fill="#FFFFFF" d="M101.536,45.084c-11.542,0-22.709-0.097-22.709,15.203h16.141c0-4.415,2.533-5.352,6.568-5.352
			c7.039,0,7.317,2.907,7.317,7.505v7.789h-0.753c-1.779-5.628-8.818-5.537-13.414-5.537c-11.637,0-17.828,3.662-17.828,15.483
			c0,12.575,6.567,15.293,17.828,15.293c5.631,0,12.947-1.122,14.167-7.88h0.563l-0.563,7.316h16.142V64.13
			C124.995,47.148,118.05,45.084,101.536,45.084 M100.032,85.055c-2.438,0-7.035,0-7.035-5.352c0-4.501,3.096-5.159,7.035-5.159
			c5.254,0,8.821,0.378,8.821,4.501C108.854,84.209,106.79,85.055,100.032,85.055"/>
		<rect x="135.878" y="24.531" fill="#FFFFFF" width="16.141" height="70.374"/>
		<path fill="#FFFFFF" d="M222.296,45.083c-6.193,0-12.854,2.627-13.698,9.663h-0.751c-0.844-8.44-7.977-9.663-14.918-9.663
			c-5.534,0-11.543,1.69-13.512,7.509h-0.656v-6.946h-15.67v49.264h16.139V66.946c0-5.91,1.22-9.478,7.881-9.478
			c5.631,0,5.913,3.099,6.098,7.601v29.84h16.137V66.946c0-5.253,1.223-9.478,7.512-9.478c6.283,0,6.193,3.753,6.474,8.912v28.529
			h16.137V61.222C239.467,49.776,233.651,45.083,222.296,45.083"/>
		<path fill="#FFFFFF" d="M273.53,45.084c-11.541,0-22.706-0.097-22.706,15.203h16.136c0-4.415,2.535-5.352,6.57-5.352
			c7.035,0,7.32,2.907,7.32,7.505v7.789h-0.75c-1.783-5.628-8.824-5.537-13.42-5.537c-11.637,0-17.825,3.662-17.825,15.483
			c0,12.575,6.567,15.293,17.825,15.293c5.633,0,12.947-1.122,14.17-7.88h0.563l-0.563,7.316h16.139V64.13
			C296.989,47.148,290.045,45.084,273.53,45.084 M272.027,85.055c-2.437,0-7.033,0-7.033-5.352c0-4.501,3.095-5.159,7.033-5.159
			c5.255,0,8.823,0.378,8.823,4.501C280.851,84.209,278.784,85.055,272.027,85.055"/>
		<path fill="#FFFFFF" d="M328.798,57.469c3.376,0,5.254,0.373,6.381,1.406c1.126,1.033,1.408,2.628,1.313,5.255h16.139
			c0-17.546-9.666-19.046-23.832-19.046c-20.172,0-23.553,8.535-23.553,25.24c0,19.423,4.506,25.145,23.553,25.145
			c8.727,0,14.636-0.469,18.393-3.281c3.844-2.727,5.439-7.789,5.439-16.986h-16.139c0,6.099-0.374,7.881-7.693,7.881
			c-6.102,0-7.414-1.217-7.414-12.758C321.384,59.064,323.075,57.469,328.798,57.469"/>
		<path fill="#FFFFFF" d="M386.13,77.266c-0.188,3.38,0,6.384-4.223,6.384c-3.004,0-3.566-1.221-3.658-4.131v-22.05h18.672V45.646
			h-18.672V35.233h-16.142v10.413h-6.003v11.823h6.003v24.302c0,12.386,8.54,13.698,18.861,13.698c13.139,0,18.108-3,18.108-16.419
			v-4.409h-12.854L386.13,77.266z"/>
		<path fill="#FFFFFF" d="M407.567,45.711c-3.191,0-5.787,2.595-5.787,5.787c0,3.19,2.596,5.788,5.787,5.788
			c3.193,0,5.793-2.598,5.793-5.788C413.36,48.307,410.761,45.711,407.567,45.711 M407.567,55.598c-2.255,0-3.91-1.596-3.91-4.1
			s1.655-4.097,3.91-4.097c2.253,0,3.912,1.593,3.912,4.097S409.82,55.598,407.567,55.598"/>
		<path fill="#FFFFFF" d="M410.135,50.479c0-1.454-0.906-1.877-2.582-1.877h-2.298v5.948h1.406v-2.363h0.563l1.191,2.363h1.518
			l-1.33-2.458C409.476,52.042,410.135,51.623,410.135,50.479 M407.804,51.06h-1.143V49.73h0.833c0.45,0,1.142,0.032,1.142,0.592
			C408.636,50.92,408.337,51.06,407.804,51.06"/>
	</g>
</g>
</svg>
